# xmcd
#
# Track frame offsets:
#	150
#	17775
#	39214
#	69905
#	91426
#	106470
#	123966
#	144810
#	162362
#
# Disc length: 2338 seconds
#
# Revision: 0
# Processed by: cddbd v1.4PL0 Copyright (c) Steve Scherf et al.
# Submitted via: dBpowerAMP V4.0
#
DISCID=69092009
DTITLE=Erin Burkett - Long Walk Home
DYEAR=1900
DGENRE=Blues
TTITLE0=Forty Days In the Desert
TTITLE1=Blade of Green
TTITLE2=Long Walk Home
TTITLE3=Ninevah
TTITLE4=Seventy-Four Cents
TTITLE5=Sunday Morning Apology
TTITLE6=Take Me There (A Higher Place)
TTITLE7=Fine Line
TTITLE8=If I Only Had a Brain
EXTD=
EXTT0=
EXTT1=
EXTT2=
EXTT3=
EXTT4=
EXTT5=
EXTT6=
EXTT7=
EXTT8=
PLAYORDER=
